<svg width="128" height="128" viewBox="0 0 128 128" fill="none" xmlns="http://www.w3.org/2000/svg">
<circle cx="64" cy="64" r="64" fill="black"/>
<path d="M44.9745 94.08V34.5018H65.1055C69.76 34.5018 73.5806 35.297 76.5673 36.8873C79.5539 38.4582 81.7649 40.6206 83.2 43.3745C84.6352 46.1285 85.3527 49.2606 85.3527 52.7709C85.3527 56.2812 84.6352 59.3939 83.2 62.1091C81.7649 64.8242 79.5636 66.9576 76.5964 68.5091C73.6291 70.0412 69.8376 70.8073 65.2218 70.8073H48.9309V64.2909H64.9891C68.1697 64.2909 70.7297 63.8255 72.6691 62.8945C74.6279 61.9636 76.0436 60.6448 76.9164 58.9382C77.8085 57.2121 78.2546 55.1564 78.2546 52.7709C78.2546 50.3855 77.8085 48.3006 76.9164 46.5164C76.0242 44.7321 74.5988 43.3552 72.64 42.3855C70.6812 41.3964 68.0921 40.9018 64.8727 40.9018H52.1891V94.08H44.9745ZM73.0182 67.3164L87.68 94.08H79.3018L64.8727 67.3164H73.0182Z" fill="white"/>
</svg>
